<mxfile host="app.diagrams.net" modified="2024-02-23T07:36:24.522Z" agent="Mozilla/5.0 (Windows NT 10.0; Win64; x64) AppleWebKit/537.36 (KHTML, like Gecko) Chrome/121.0.0.0 Safari/537.36 Edg/121.0.0.0" etag="l7IK7MVfP5zCp1osmUYR" version="23.1.6" type="github">
  <diagram name="第 1 页" id="JCfZ98PJAl0s_nQfuDJZ">
    <mxGraphModel dx="859" dy="605" grid="1" gridSize="10" guides="1" tooltips="1" connect="1" arrows="1" fold="1" page="1" pageScale="1" pageWidth="827" pageHeight="1169" math="0" shadow="0">
      <root>
        <mxCell id="0" />
        <mxCell id="1" parent="0" />
        <mxCell id="g-MxfnX2MLfXd-Wyj08T-4" style="edgeStyle=orthogonalEdgeStyle;rounded=1;orthogonalLoop=1;jettySize=auto;html=1;entryX=0;entryY=0.5;entryDx=0;entryDy=0;exitX=0.5;exitY=1;exitDx=0;exitDy=0;curved=0;" edge="1" parent="1" source="g-MxfnX2MLfXd-Wyj08T-1" target="g-MxfnX2MLfXd-Wyj08T-3">
          <mxGeometry relative="1" as="geometry" />
        </mxCell>
        <mxCell id="g-MxfnX2MLfXd-Wyj08T-9" style="edgeStyle=orthogonalEdgeStyle;rounded=1;orthogonalLoop=1;jettySize=auto;html=1;exitX=0.5;exitY=1;exitDx=0;exitDy=0;entryX=0;entryY=0.5;entryDx=0;entryDy=0;curved=0;" edge="1" parent="1" source="g-MxfnX2MLfXd-Wyj08T-1" target="g-MxfnX2MLfXd-Wyj08T-8">
          <mxGeometry relative="1" as="geometry" />
        </mxCell>
        <mxCell id="g-MxfnX2MLfXd-Wyj08T-20" style="edgeStyle=orthogonalEdgeStyle;rounded=1;orthogonalLoop=1;jettySize=auto;html=1;exitX=0.5;exitY=1;exitDx=0;exitDy=0;entryX=0;entryY=0.5;entryDx=0;entryDy=0;curved=0;" edge="1" parent="1" source="g-MxfnX2MLfXd-Wyj08T-1" target="g-MxfnX2MLfXd-Wyj08T-13">
          <mxGeometry relative="1" as="geometry" />
        </mxCell>
        <mxCell id="g-MxfnX2MLfXd-Wyj08T-1" value="" style="shape=image;verticalLabelPosition=bottom;labelBackgroundColor=default;verticalAlign=top;aspect=fixed;imageAspect=0;image=data:image/png,iVBORw0KGgoAAAANSUhEUgAAAMgAAADICAYAAACtWK6eAAAAAXNSR0IArs4c6QAACU9JREFUeF7tnFuI1VUUh9c+05jO5I10xsqydEQnR/FGQfUg2kOpoWMhaqFFUWRFRkVgBBaOFUQ3SKjopR4kCs2KnjJfQlMxREeJzBK7mRZBXsM8/5huSDm59j7/c/7LWZ+vrr33+n2/+RgdDwbhFwQg0C2BABsIQKB7AgjCVwcE/ocAgvDlAQEE4WsAAmkE+A6Sxo1TTgggiJOiiZlGAEHSuHHKCQEEcVI0MdMIIEgaN045IYAgToomZhoBBEnjxiknBBDESdHETCOAIGncOOWEAII4KZqYaQQQJI0bp5wQQBAnRRMzjQCCpHHjlBMCCOKkaGKmEUCQNG6cckIAQZwUTcw0AgiSxo1TTgggiJOiiZlGAEHSuHHKCQEEcVI0MdMIIEgaN045IYAgToomZhoBBEnjxiknBBDESdHETCOAIGncOOWEAII4KZqYaQQQJI0bp5wQQBAnRRMzjUAugmTvTWqQ8rFRImGUlMPotFXO0lNZOC518rWUw/7Qvn3dWZqCtbshULEg2Zqx10vIXhSRFveUQ1glWXghzN6+yT2LHgKgIkGytWOfkyxb0kNY5BcjhLlh1o638ruQm4oikCxI9k7b2yJyY1GLm38XScxXpFkwSZBszZglEsJzmgccz2wNszsnO87fI6InCtK2VYJM7BEEqhkiC3eF9h2vVPMJ7q4ugWhBspcn1Uvzr4dFpFd1V+sJt4d3w+wds3pCEq8Z4gVZ3dYqJdnlFVhk7iNSLg0Pc7YfiDzHuBEC8YKsaZsiQdYb2d/+Glm2ILTvXGV/UTY8HQEEqfbXRSavhfbOO6r9DPdXhwCCVIfrqbd+Jds6W8IyKVf/KV7ImwCC5E30dPdlpWv5GEotQOf/BoLkz/S/N2byZGjvXFqLp3gjXwIIki/P09+WyebQ3nllLZ7ijXwJIEi+PLu/re3uT6TvsK5/P+JX1QhkZZHSTpHsY2k6ujaEuScrfQpBKiWoPX/pTJELrtFOM5cPgaeldLIjDJ51KPU6BEklF3tuQKtI66LYU8xXTuA7qcumhUE3fJZyFYKkUEs5U6oXmfCwSK9+Kac5UxmBdaF55rUpVyBICrXUMyPniQwan3qac5UQyLJ5YcgNb8ZegSCxxCqZb5osMuKmSm7gbCqBIB+EppkzYo/HC7Jh0Z1yYOvLsQ8x3/X554EiEx8SCXXgKIJA04y6EELUJxriBdly31L5dn1HEfl6xJutt4sMGNkjopx1IU6ULg5Dp38TszeCxNDKY/aiKSKXXJfHTdwRSwBBYokVMN84VGTcvQU8zJNSuCBd34/OyWjiTARa5os0DD7TFL8fSyCUROqHiEg3fzAqRpBMpDET6ZOJ9EKO2E6ZrwKBhlaRhgkijf/6bxNqLkiXFAMr/rhLFQhxJQREpK6/yKD5Ir3/+j8NaypIY1mkf9RPzOgMAsUQaF4s0nu41O7vIN+v75AhvxUTllchEEvg3MtEhtxTQ0F+WdchffnuEdsT8wUSGHyrSP24Gv07yIkPO/hpVYFl83Q8gYbxIgMW1kCQzTc/I7L1wfgNOQGBIgnUi1z4dC0EmfGGyJ5biozK2xBIItAw9YrQtnJLzNn4j5psRpAYwMwaIoAghspgFXsEEMReJ2xkiACCGCqDVewRQBB7nbCRIQIIYqgMVrFHAEHsdcJGhgggiKEyWMUeAQSx1wkbGSKAIIbKYBV7BBDEXidsZIgAghgqg1XsEUAQe52wkSECCGKoDFaxRwBB7HXCRoYI1ESQXbctl8MbHzUUm1UgoCOAIDpOTDklgCBOiye2jgCC6Dgx5ZQAgjgtntg6Agii48SUUwII4rR4YusIIIiOE1NOCSCI0+KJrSOAIDpOTDklgCBOiye2jgCC6Dgx5ZQAgjgtntg6Agii48SUUwII4rR4YusIIIiOE1NOCSCI0+KJrSOAIDpOTDklgCBOiye2jgCC6Dgx5ZQAgjgtntg6Agii48SUUwII4rR4YusIIIiOE1NOCSCI0+KJrSOAIDpOTDklgCBOiye2jgCC6Dgx5ZQAgjgtntg6Agii48SUUwII4rR4YusIIIiOE1NOCSCI0+KJrSOAIDpOTDklgCBOiye2jgCC6Dgx5ZQAgjgtntg6Agii48SUUwII4rR4YusIIIiOE1NOCSCI0+KJrSOAIDpOTDklgCBOiye2jgCC6Dgx5ZQAgjgtntg6Agii48SUUwII4rR4YusIIIiOE1NOCSCI0+KJrSOAIDpOTDklgCBOiye2jgCC6Dgx5ZQAgjgtntg6Agii48SUUwII4rR4YusIIIiOE1NOCSCI0+KJrSOAIDpOTDklgCBOiye2jgCC6Dgx5ZQAgjgtntg6Agii48SUUwII4rR4YusIIIiOE1NOCSCI0+KJrSOAIDpOTDklgCBOiye2jgCC6Dgx5ZQAgjgtntg6Agii48SUUwII4rR4YusIIIiOE1NOCSCI0+KJrSOAIDpOTDklgCBOiye2jgCC6Dgx5ZQAgjgtntg6Agii48SUUwII4rR4YusIIIiOE1NOCSCI0+KJrSOAIDpOTDklgCBOiye2jgCC6Dgx5ZRATQTZs/R++Wn1804RE/tsJnDhsxeHodO/iYkQYoa7ZrMDa1tk7yO7Y88xD4FCCfRuKYdx79fF7hAtyB+S7FxwUI58Oij2MeYhUBiBflM3hNErr459P02QLx9/Qn5c9VjsY8xDoDACw1ZcFZrnbIx9P0mQP7+LLNovRzY1xz7IPARqTqD/tI/CqJempbybLsgPH4yQg69vkKPbmlIe5gwEakLgvKs7w+WvjU19K1mQvx/MPn/gKTn+xR1yfPf5qUtwDgK5E2gcu1f6jFoRhi9/tZK7KxbkH1H2LWuTQ/sWSvnYmEoW4iwEkgmU5KSEvpukcfzKMGzxz8n3nHIwN0HyWIY7IGCNAIJYa4R9TBFAEFN1sIw1AghirRH2MUUAQUzVwTLWCCCItUbYxxQBBDFVB8tYI4Ag1hphH1MEEMRUHSxjjQCCWGuEfUwRQBBTdbCMNQIIYq0R9jFFAEFM1cEy1gggiLVG2McUAQQxVQfLWCOAINYaYR9TBBDEVB0sY40AglhrhH1MEUAQU3WwjDUCCGKtEfYxRQBBTNXBMtYIIIi1RtjHFAEEMVUHy1gjgCDWGmEfUwQQxFQdLGONAIJYa4R9TBFAEFN1sIw1Ar8D78je9k5gcEAAAAAASUVORK5CYII=;" vertex="1" parent="1">
          <mxGeometry x="170" y="200" width="40" height="40" as="geometry" />
        </mxCell>
        <mxCell id="g-MxfnX2MLfXd-Wyj08T-2" value="root" style="text;strokeColor=none;align=center;fillColor=none;html=1;verticalAlign=middle;whiteSpace=wrap;rounded=0;fontSize=15;fontStyle=1" vertex="1" parent="1">
          <mxGeometry x="200" y="205" width="60" height="30" as="geometry" />
        </mxCell>
        <mxCell id="g-MxfnX2MLfXd-Wyj08T-3" value="" style="shape=image;verticalLabelPosition=bottom;labelBackgroundColor=default;verticalAlign=top;aspect=fixed;imageAspect=0;image=data:image/png,iVBORw0KGgoAAAANSUhEUgAAAMgAAADICAYAAACtWK6eAAAAAXNSR0IArs4c6QAACU9JREFUeF7tnFuI1VUUh9c+05jO5I10xsqydEQnR/FGQfUg2kOpoWMhaqFFUWRFRkVgBBaOFUQ3SKjopR4kCs2KnjJfQlMxREeJzBK7mRZBXsM8/5huSDm59j7/c/7LWZ+vrr33+n2/+RgdDwbhFwQg0C2BABsIQKB7AgjCVwcE/ocAgvDlAQEE4WsAAmkE+A6Sxo1TTgggiJOiiZlGAEHSuHHKCQEEcVI0MdMIIEgaN045IYAgToomZhoBBEnjxiknBBDESdHETCOAIGncOOWEAII4KZqYaQQQJI0bp5wQQBAnRRMzjQCCpHHjlBMCCOKkaGKmEUCQNG6cckIAQZwUTcw0AgiSxo1TTgggiJOiiZlGAEHSuHHKCQEEcVI0MdMIIEgaN045IYAgToomZhoBBEnjxiknBBDESdHETCOAIGncOOWEAII4KZqYaQQQJI0bp5wQQBAnRRMzjUAugmTvTWqQ8rFRImGUlMPotFXO0lNZOC518rWUw/7Qvn3dWZqCtbshULEg2Zqx10vIXhSRFveUQ1glWXghzN6+yT2LHgKgIkGytWOfkyxb0kNY5BcjhLlh1o638ruQm4oikCxI9k7b2yJyY1GLm38XScxXpFkwSZBszZglEsJzmgccz2wNszsnO87fI6InCtK2VYJM7BEEqhkiC3eF9h2vVPMJ7q4ugWhBspcn1Uvzr4dFpFd1V+sJt4d3w+wds3pCEq8Z4gVZ3dYqJdnlFVhk7iNSLg0Pc7YfiDzHuBEC8YKsaZsiQdYb2d/+Glm2ILTvXGV/UTY8HQEEqfbXRSavhfbOO6r9DPdXhwCCVIfrqbd+Jds6W8IyKVf/KV7ImwCC5E30dPdlpWv5GEotQOf/BoLkz/S/N2byZGjvXFqLp3gjXwIIki/P09+WyebQ3nllLZ7ijXwJIEi+PLu/re3uT6TvsK5/P+JX1QhkZZHSTpHsY2k6ujaEuScrfQpBKiWoPX/pTJELrtFOM5cPgaeldLIjDJ51KPU6BEklF3tuQKtI66LYU8xXTuA7qcumhUE3fJZyFYKkUEs5U6oXmfCwSK9+Kac5UxmBdaF55rUpVyBICrXUMyPniQwan3qac5UQyLJ5YcgNb8ZegSCxxCqZb5osMuKmSm7gbCqBIB+EppkzYo/HC7Jh0Z1yYOvLsQ8x3/X554EiEx8SCXXgKIJA04y6EELUJxriBdly31L5dn1HEfl6xJutt4sMGNkjopx1IU6ULg5Dp38TszeCxNDKY/aiKSKXXJfHTdwRSwBBYokVMN84VGTcvQU8zJNSuCBd34/OyWjiTARa5os0DD7TFL8fSyCUROqHiEg3fzAqRpBMpDET6ZOJ9EKO2E6ZrwKBhlaRhgkijf/6bxNqLkiXFAMr/rhLFQhxJQREpK6/yKD5Ir3/+j8NaypIY1mkf9RPzOgMAsUQaF4s0nu41O7vIN+v75AhvxUTllchEEvg3MtEhtxTQ0F+WdchffnuEdsT8wUSGHyrSP24Gv07yIkPO/hpVYFl83Q8gYbxIgMW1kCQzTc/I7L1wfgNOQGBIgnUi1z4dC0EmfGGyJ5biozK2xBIItAw9YrQtnJLzNn4j5psRpAYwMwaIoAghspgFXsEEMReJ2xkiACCGCqDVewRQBB7nbCRIQIIYqgMVrFHAEHsdcJGhgggiKEyWMUeAQSx1wkbGSKAIIbKYBV7BBDEXidsZIgAghgqg1XsEUAQe52wkSECCGKoDFaxRwBB7HXCRoYI1ESQXbctl8MbHzUUm1UgoCOAIDpOTDklgCBOiye2jgCC6Dgx5ZQAgjgtntg6Agii48SUUwII4rR4YusIIIiOE1NOCSCI0+KJrSOAIDpOTDklgCBOiye2jgCC6Dgx5ZQAgjgtntg6Agii48SUUwII4rR4YusIIIiOE1NOCSCI0+KJrSOAIDpOTDklgCBOiye2jgCC6Dgx5ZQAgjgtntg6Agii48SUUwII4rR4YusIIIiOE1NOCSCI0+KJrSOAIDpOTDklgCBOiye2jgCC6Dgx5ZQAgjgtntg6Agii48SUUwII4rR4YusIIIiOE1NOCSCI0+KJrSOAIDpOTDklgCBOiye2jgCC6Dgx5ZQAgjgtntg6Agii48SUUwII4rR4YusIIIiOE1NOCSCI0+KJrSOAIDpOTDklgCBOiye2jgCC6Dgx5ZQAgjgtntg6Agii48SUUwII4rR4YusIIIiOE1NOCSCI0+KJrSOAIDpOTDklgCBOiye2jgCC6Dgx5ZQAgjgtntg6Agii48SUUwII4rR4YusIIIiOE1NOCSCI0+KJrSOAIDpOTDklgCBOiye2jgCC6Dgx5ZQAgjgtntg6Agii48SUUwII4rR4YusIIIiOE1NOCSCI0+KJrSOAIDpOTDklgCBOiye2jgCC6Dgx5ZQAgjgtntg6Agii48SUUwII4rR4YusIIIiOE1NOCSCI0+KJrSOAIDpOTDklgCBOiye2jgCC6Dgx5ZQAgjgtntg6Agii48SUUwII4rR4YusIIIiOE1NOCSCI0+KJrSOAIDpOTDklgCBOiye2jgCC6Dgx5ZRATQTZs/R++Wn1804RE/tsJnDhsxeHodO/iYkQYoa7ZrMDa1tk7yO7Y88xD4FCCfRuKYdx79fF7hAtyB+S7FxwUI58Oij2MeYhUBiBflM3hNErr459P02QLx9/Qn5c9VjsY8xDoDACw1ZcFZrnbIx9P0mQP7+LLNovRzY1xz7IPARqTqD/tI/CqJempbybLsgPH4yQg69vkKPbmlIe5gwEakLgvKs7w+WvjU19K1mQvx/MPn/gKTn+xR1yfPf5qUtwDgK5E2gcu1f6jFoRhi9/tZK7KxbkH1H2LWuTQ/sWSvnYmEoW4iwEkgmU5KSEvpukcfzKMGzxz8n3nHIwN0HyWIY7IGCNAIJYa4R9TBFAEFN1sIw1AghirRH2MUUAQUzVwTLWCCCItUbYxxQBBDFVB8tYI4Ag1hphH1MEEMRUHSxjjQCCWGuEfUwRQBBTdbCMNQIIYq0R9jFFAEFM1cEy1gggiLVG2McUAQQxVQfLWCOAINYaYR9TBBDEVB0sY40AglhrhH1MEUAQU3WwjDUCCGKtEfYxRQBBTNXBMtYIIIi1RtjHFAEEMVUHy1gjgCDWGmEfUwQQxFQdLGONAIJYa4R9TBFAEFN1sIw1Ar8D78je9k5gcEAAAAAASUVORK5CYII=;" vertex="1" parent="1">
          <mxGeometry x="230" y="260" width="40" height="40" as="geometry" />
        </mxCell>
        <mxCell id="g-MxfnX2MLfXd-Wyj08T-7" style="edgeStyle=none;rounded=0;orthogonalLoop=1;jettySize=auto;html=1;exitX=1;exitY=0.5;exitDx=0;exitDy=0;entryX=0;entryY=0.5;entryDx=0;entryDy=0;curved=0;" edge="1" parent="1" source="g-MxfnX2MLfXd-Wyj08T-5" target="g-MxfnX2MLfXd-Wyj08T-6">
          <mxGeometry relative="1" as="geometry" />
        </mxCell>
        <mxCell id="g-MxfnX2MLfXd-Wyj08T-5" value="models" style="text;strokeColor=none;align=center;fillColor=none;html=1;verticalAlign=middle;whiteSpace=wrap;rounded=0;fontSize=15;fontStyle=1" vertex="1" parent="1">
          <mxGeometry x="270" y="265" width="60" height="30" as="geometry" />
        </mxCell>
        <mxCell id="g-MxfnX2MLfXd-Wyj08T-6" value="&lt;p&gt;&lt;b&gt;存储训练完成的&lt;br&gt;Server Model&lt;/b&gt;&lt;/p&gt;" style="text;strokeColor=#82b366;align=center;fillColor=#d5e8d4;html=1;verticalAlign=middle;whiteSpace=wrap;rounded=0;spacingTop=0;spacingBottom=0;spacing=4;" vertex="1" parent="1">
          <mxGeometry x="390" y="262.5" width="150" height="35" as="geometry" />
        </mxCell>
        <mxCell id="g-MxfnX2MLfXd-Wyj08T-8" value="" style="shape=image;verticalLabelPosition=bottom;labelBackgroundColor=default;verticalAlign=top;aspect=fixed;imageAspect=0;image=data:image/png,iVBORw0KGgoAAAANSUhEUgAAAMgAAADICAYAAACtWK6eAAAAAXNSR0IArs4c6QAACU9JREFUeF7tnFuI1VUUh9c+05jO5I10xsqydEQnR/FGQfUg2kOpoWMhaqFFUWRFRkVgBBaOFUQ3SKjopR4kCs2KnjJfQlMxREeJzBK7mRZBXsM8/5huSDm59j7/c/7LWZ+vrr33+n2/+RgdDwbhFwQg0C2BABsIQKB7AgjCVwcE/ocAgvDlAQEE4WsAAmkE+A6Sxo1TTgggiJOiiZlGAEHSuHHKCQEEcVI0MdMIIEgaN045IYAgToomZhoBBEnjxiknBBDESdHETCOAIGncOOWEAII4KZqYaQQQJI0bp5wQQBAnRRMzjQCCpHHjlBMCCOKkaGKmEUCQNG6cckIAQZwUTcw0AgiSxo1TTgggiJOiiZlGAEHSuHHKCQEEcVI0MdMIIEgaN045IYAgToomZhoBBEnjxiknBBDESdHETCOAIGncOOWEAII4KZqYaQQQJI0bp5wQQBAnRRMzjUAugmTvTWqQ8rFRImGUlMPotFXO0lNZOC518rWUw/7Qvn3dWZqCtbshULEg2Zqx10vIXhSRFveUQ1glWXghzN6+yT2LHgKgIkGytWOfkyxb0kNY5BcjhLlh1o638ruQm4oikCxI9k7b2yJyY1GLm38XScxXpFkwSZBszZglEsJzmgccz2wNszsnO87fI6InCtK2VYJM7BEEqhkiC3eF9h2vVPMJ7q4ugWhBspcn1Uvzr4dFpFd1V+sJt4d3w+wds3pCEq8Z4gVZ3dYqJdnlFVhk7iNSLg0Pc7YfiDzHuBEC8YKsaZsiQdYb2d/+Glm2ILTvXGV/UTY8HQEEqfbXRSavhfbOO6r9DPdXhwCCVIfrqbd+Jds6W8IyKVf/KV7ImwCC5E30dPdlpWv5GEotQOf/BoLkz/S/N2byZGjvXFqLp3gjXwIIki/P09+WyebQ3nllLZ7ijXwJIEi+PLu/re3uT6TvsK5/P+JX1QhkZZHSTpHsY2k6ujaEuScrfQpBKiWoPX/pTJELrtFOM5cPgaeldLIjDJ51KPU6BEklF3tuQKtI66LYU8xXTuA7qcumhUE3fJZyFYKkUEs5U6oXmfCwSK9+Kac5UxmBdaF55rUpVyBICrXUMyPniQwan3qac5UQyLJ5YcgNb8ZegSCxxCqZb5osMuKmSm7gbCqBIB+EppkzYo/HC7Jh0Z1yYOvLsQ8x3/X554EiEx8SCXXgKIJA04y6EELUJxriBdly31L5dn1HEfl6xJutt4sMGNkjopx1IU6ULg5Dp38TszeCxNDKY/aiKSKXXJfHTdwRSwBBYokVMN84VGTcvQU8zJNSuCBd34/OyWjiTARa5os0DD7TFL8fSyCUROqHiEg3fzAqRpBMpDET6ZOJ9EKO2E6ZrwKBhlaRhgkijf/6bxNqLkiXFAMr/rhLFQhxJQREpK6/yKD5Ir3/+j8NaypIY1mkf9RPzOgMAsUQaF4s0nu41O7vIN+v75AhvxUTllchEEvg3MtEhtxTQ0F+WdchffnuEdsT8wUSGHyrSP24Gv07yIkPO/hpVYFl83Q8gYbxIgMW1kCQzTc/I7L1wfgNOQGBIgnUi1z4dC0EmfGGyJ5biozK2xBIItAw9YrQtnJLzNn4j5psRpAYwMwaIoAghspgFXsEEMReJ2xkiACCGCqDVewRQBB7nbCRIQIIYqgMVrFHAEHsdcJGhgggiKEyWMUeAQSx1wkbGSKAIIbKYBV7BBDEXidsZIgAghgqg1XsEUAQe52wkSECCGKoDFaxRwBB7HXCRoYI1ESQXbctl8MbHzUUm1UgoCOAIDpOTDklgCBOiye2jgCC6Dgx5ZQAgjgtntg6Agii48SUUwII4rR4YusIIIiOE1NOCSCI0+KJrSOAIDpOTDklgCBOiye2jgCC6Dgx5ZQAgjgtntg6Agii48SUUwII4rR4YusIIIiOE1NOCSCI0+KJrSOAIDpOTDklgCBOiye2jgCC6Dgx5ZQAgjgtntg6Agii48SUUwII4rR4YusIIIiOE1NOCSCI0+KJrSOAIDpOTDklgCBOiye2jgCC6Dgx5ZQAgjgtntg6Agii48SUUwII4rR4YusIIIiOE1NOCSCI0+KJrSOAIDpOTDklgCBOiye2jgCC6Dgx5ZQAgjgtntg6Agii48SUUwII4rR4YusIIIiOE1NOCSCI0+KJrSOAIDpOTDklgCBOiye2jgCC6Dgx5ZQAgjgtntg6Agii48SUUwII4rR4YusIIIiOE1NOCSCI0+KJrSOAIDpOTDklgCBOiye2jgCC6Dgx5ZQAgjgtntg6Agii48SUUwII4rR4YusIIIiOE1NOCSCI0+KJrSOAIDpOTDklgCBOiye2jgCC6Dgx5ZQAgjgtntg6Agii48SUUwII4rR4YusIIIiOE1NOCSCI0+KJrSOAIDpOTDklgCBOiye2jgCC6Dgx5ZQAgjgtntg6Agii48SUUwII4rR4YusIIIiOE1NOCSCI0+KJrSOAIDpOTDklgCBOiye2jgCC6Dgx5ZQAgjgtntg6Agii48SUUwII4rR4YusIIIiOE1NOCSCI0+KJrSOAIDpOTDklgCBOiye2jgCC6Dgx5ZRATQTZs/R++Wn1804RE/tsJnDhsxeHodO/iYkQYoa7ZrMDa1tk7yO7Y88xD4FCCfRuKYdx79fF7hAtyB+S7FxwUI58Oij2MeYhUBiBflM3hNErr459P02QLx9/Qn5c9VjsY8xDoDACw1ZcFZrnbIx9P0mQP7+LLNovRzY1xz7IPARqTqD/tI/CqJempbybLsgPH4yQg69vkKPbmlIe5gwEakLgvKs7w+WvjU19K1mQvx/MPn/gKTn+xR1yfPf5qUtwDgK5E2gcu1f6jFoRhi9/tZK7KxbkH1H2LWuTQ/sWSvnYmEoW4iwEkgmU5KSEvpukcfzKMGzxz8n3nHIwN0HyWIY7IGCNAIJYa4R9TBFAEFN1sIw1AghirRH2MUUAQUzVwTLWCCCItUbYxxQBBDFVB8tYI4Ag1hphH1MEEMRUHSxjjQCCWGuEfUwRQBBTdbCMNQIIYq0R9jFFAEFM1cEy1gggiLVG2McUAQQxVQfLWCOAINYaYR9TBBDEVB0sY40AglhrhH1MEUAQU3WwjDUCCGKtEfYxRQBBTNXBMtYIIIi1RtjHFAEEMVUHy1gjgCDWGmEfUwQQxFQdLGONAIJYa4R9TBFAEFN1sIw1Ar8D78je9k5gcEAAAAAASUVORK5CYII=;" vertex="1" parent="1">
          <mxGeometry x="230" y="310" width="40" height="40" as="geometry" />
        </mxCell>
        <mxCell id="g-MxfnX2MLfXd-Wyj08T-12" style="edgeStyle=none;rounded=0;orthogonalLoop=1;jettySize=auto;html=1;exitX=1;exitY=0.5;exitDx=0;exitDy=0;entryX=0;entryY=0.5;entryDx=0;entryDy=0;" edge="1" parent="1" source="g-MxfnX2MLfXd-Wyj08T-10" target="g-MxfnX2MLfXd-Wyj08T-11">
          <mxGeometry relative="1" as="geometry" />
        </mxCell>
        <mxCell id="g-MxfnX2MLfXd-Wyj08T-10" value="results" style="text;strokeColor=none;align=center;fillColor=none;html=1;verticalAlign=middle;whiteSpace=wrap;rounded=0;fontSize=15;fontStyle=1" vertex="1" parent="1">
          <mxGeometry x="270" y="315" width="60" height="30" as="geometry" />
        </mxCell>
        <mxCell id="g-MxfnX2MLfXd-Wyj08T-11" value="&lt;p&gt;&lt;b&gt;存储训练结果数据&lt;br&gt;&lt;/b&gt;&lt;/p&gt;" style="text;strokeColor=#82b366;align=center;fillColor=#d5e8d4;html=1;verticalAlign=middle;whiteSpace=wrap;rounded=0;spacingTop=0;spacingBottom=0;spacing=4;" vertex="1" parent="1">
          <mxGeometry x="390" y="312.5" width="150" height="35" as="geometry" />
        </mxCell>
        <mxCell id="g-MxfnX2MLfXd-Wyj08T-16" style="edgeStyle=orthogonalEdgeStyle;rounded=1;orthogonalLoop=1;jettySize=auto;html=1;exitX=0.5;exitY=1;exitDx=0;exitDy=0;entryX=0;entryY=0.5;entryDx=0;entryDy=0;" edge="1" parent="1" source="g-MxfnX2MLfXd-Wyj08T-13" target="g-MxfnX2MLfXd-Wyj08T-15">
          <mxGeometry relative="1" as="geometry" />
        </mxCell>
        <mxCell id="g-MxfnX2MLfXd-Wyj08T-13" value="" style="shape=image;verticalLabelPosition=bottom;labelBackgroundColor=default;verticalAlign=top;aspect=fixed;imageAspect=0;image=data:image/png,iVBORw0KGgoAAAANSUhEUgAAAMgAAADICAYAAACtWK6eAAAAAXNSR0IArs4c6QAACU9JREFUeF7tnFuI1VUUh9c+05jO5I10xsqydEQnR/FGQfUg2kOpoWMhaqFFUWRFRkVgBBaOFUQ3SKjopR4kCs2KnjJfQlMxREeJzBK7mRZBXsM8/5huSDm59j7/c/7LWZ+vrr33+n2/+RgdDwbhFwQg0C2BABsIQKB7AgjCVwcE/ocAgvDlAQEE4WsAAmkE+A6Sxo1TTgggiJOiiZlGAEHSuHHKCQEEcVI0MdMIIEgaN045IYAgToomZhoBBEnjxiknBBDESdHETCOAIGncOOWEAII4KZqYaQQQJI0bp5wQQBAnRRMzjQCCpHHjlBMCCOKkaGKmEUCQNG6cckIAQZwUTcw0AgiSxo1TTgggiJOiiZlGAEHSuHHKCQEEcVI0MdMIIEgaN045IYAgToomZhoBBEnjxiknBBDESdHETCOAIGncOOWEAII4KZqYaQQQJI0bp5wQQBAnRRMzjUAugmTvTWqQ8rFRImGUlMPotFXO0lNZOC518rWUw/7Qvn3dWZqCtbshULEg2Zqx10vIXhSRFveUQ1glWXghzN6+yT2LHgKgIkGytWOfkyxb0kNY5BcjhLlh1o638ruQm4oikCxI9k7b2yJyY1GLm38XScxXpFkwSZBszZglEsJzmgccz2wNszsnO87fI6InCtK2VYJM7BEEqhkiC3eF9h2vVPMJ7q4ugWhBspcn1Uvzr4dFpFd1V+sJt4d3w+wds3pCEq8Z4gVZ3dYqJdnlFVhk7iNSLg0Pc7YfiDzHuBEC8YKsaZsiQdYb2d/+Glm2ILTvXGV/UTY8HQEEqfbXRSavhfbOO6r9DPdXhwCCVIfrqbd+Jds6W8IyKVf/KV7ImwCC5E30dPdlpWv5GEotQOf/BoLkz/S/N2byZGjvXFqLp3gjXwIIki/P09+WyebQ3nllLZ7ijXwJIEi+PLu/re3uT6TvsK5/P+JX1QhkZZHSTpHsY2k6ujaEuScrfQpBKiWoPX/pTJELrtFOM5cPgaeldLIjDJ51KPU6BEklF3tuQKtI66LYU8xXTuA7qcumhUE3fJZyFYKkUEs5U6oXmfCwSK9+Kac5UxmBdaF55rUpVyBICrXUMyPniQwan3qac5UQyLJ5YcgNb8ZegSCxxCqZb5osMuKmSm7gbCqBIB+EppkzYo/HC7Jh0Z1yYOvLsQ8x3/X554EiEx8SCXXgKIJA04y6EELUJxriBdly31L5dn1HEfl6xJutt4sMGNkjopx1IU6ULg5Dp38TszeCxNDKY/aiKSKXXJfHTdwRSwBBYokVMN84VGTcvQU8zJNSuCBd34/OyWjiTARa5os0DD7TFL8fSyCUROqHiEg3fzAqRpBMpDET6ZOJ9EKO2E6ZrwKBhlaRhgkijf/6bxNqLkiXFAMr/rhLFQhxJQREpK6/yKD5Ir3/+j8NaypIY1mkf9RPzOgMAsUQaF4s0nu41O7vIN+v75AhvxUTllchEEvg3MtEhtxTQ0F+WdchffnuEdsT8wUSGHyrSP24Gv07yIkPO/hpVYFl83Q8gYbxIgMW1kCQzTc/I7L1wfgNOQGBIgnUi1z4dC0EmfGGyJ5biozK2xBIItAw9YrQtnJLzNn4j5psRpAYwMwaIoAghspgFXsEEMReJ2xkiACCGCqDVewRQBB7nbCRIQIIYqgMVrFHAEHsdcJGhgggiKEyWMUeAQSx1wkbGSKAIIbKYBV7BBDEXidsZIgAghgqg1XsEUAQe52wkSECCGKoDFaxRwBB7HXCRoYI1ESQXbctl8MbHzUUm1UgoCOAIDpOTDklgCBOiye2jgCC6Dgx5ZQAgjgtntg6Agii48SUUwII4rR4YusIIIiOE1NOCSCI0+KJrSOAIDpOTDklgCBOiye2jgCC6Dgx5ZQAgjgtntg6Agii48SUUwII4rR4YusIIIiOE1NOCSCI0+KJrSOAIDpOTDklgCBOiye2jgCC6Dgx5ZQAgjgtntg6Agii48SUUwII4rR4YusIIIiOE1NOCSCI0+KJrSOAIDpOTDklgCBOiye2jgCC6Dgx5ZQAgjgtntg6Agii48SUUwII4rR4YusIIIiOE1NOCSCI0+KJrSOAIDpOTDklgCBOiye2jgCC6Dgx5ZQAgjgtntg6Agii48SUUwII4rR4YusIIIiOE1NOCSCI0+KJrSOAIDpOTDklgCBOiye2jgCC6Dgx5ZQAgjgtntg6Agii48SUUwII4rR4YusIIIiOE1NOCSCI0+KJrSOAIDpOTDklgCBOiye2jgCC6Dgx5ZQAgjgtntg6Agii48SUUwII4rR4YusIIIiOE1NOCSCI0+KJrSOAIDpOTDklgCBOiye2jgCC6Dgx5ZQAgjgtntg6Agii48SUUwII4rR4YusIIIiOE1NOCSCI0+KJrSOAIDpOTDklgCBOiye2jgCC6Dgx5ZQAgjgtntg6Agii48SUUwII4rR4YusIIIiOE1NOCSCI0+KJrSOAIDpOTDklgCBOiye2jgCC6Dgx5ZQAgjgtntg6Agii48SUUwII4rR4YusIIIiOE1NOCSCI0+KJrSOAIDpOTDklgCBOiye2jgCC6Dgx5ZRATQTZs/R++Wn1804RE/tsJnDhsxeHodO/iYkQYoa7ZrMDa1tk7yO7Y88xD4FCCfRuKYdx79fF7hAtyB+S7FxwUI58Oij2MeYhUBiBflM3hNErr459P02QLx9/Qn5c9VjsY8xDoDACw1ZcFZrnbIx9P0mQP7+LLNovRzY1xz7IPARqTqD/tI/CqJempbybLsgPH4yQg69vkKPbmlIe5gwEakLgvKs7w+WvjU19K1mQvx/MPn/gKTn+xR1yfPf5qUtwDgK5E2gcu1f6jFoRhi9/tZK7KxbkH1H2LWuTQ/sWSvnYmEoW4iwEkgmU5KSEvpukcfzKMGzxz8n3nHIwN0HyWIY7IGCNAIJYa4R9TBFAEFN1sIw1AghirRH2MUUAQUzVwTLWCCCItUbYxxQBBDFVB8tYI4Ag1hphH1MEEMRUHSxjjQCCWGuEfUwRQBBTdbCMNQIIYq0R9jFFAEFM1cEy1gggiLVG2McUAQQxVQfLWCOAINYaYR9TBBDEVB0sY40AglhrhH1MEUAQU3WwjDUCCGKtEfYxRQBBTNXBMtYIIIi1RtjHFAEEMVUHy1gjgCDWGmEfUwQQxFQdLGONAIJYa4R9TBFAEFN1sIw1Ar8D78je9k5gcEAAAAAASUVORK5CYII=;" vertex="1" parent="1">
          <mxGeometry x="230" y="360" width="40" height="40" as="geometry" />
        </mxCell>
        <mxCell id="g-MxfnX2MLfXd-Wyj08T-14" value="dataset" style="text;strokeColor=none;align=center;fillColor=none;html=1;verticalAlign=middle;whiteSpace=wrap;rounded=0;fontSize=15;fontStyle=1" vertex="1" parent="1">
          <mxGeometry x="270" y="365" width="60" height="30" as="geometry" />
        </mxCell>
        <mxCell id="g-MxfnX2MLfXd-Wyj08T-15" value="" style="shape=image;verticalLabelPosition=bottom;labelBackgroundColor=default;verticalAlign=top;aspect=fixed;imageAspect=0;image=data:image/png,iVBORw0KGgoAAAANSUhEUgAAAMgAAADICAYAAACtWK6eAAAAAXNSR0IArs4c6QAACU9JREFUeF7tnFuI1VUUh9c+05jO5I10xsqydEQnR/FGQfUg2kOpoWMhaqFFUWRFRkVgBBaOFUQ3SKjopR4kCs2KnjJfQlMxREeJzBK7mRZBXsM8/5huSDm59j7/c/7LWZ+vrr33+n2/+RgdDwbhFwQg0C2BABsIQKB7AgjCVwcE/ocAgvDlAQEE4WsAAmkE+A6Sxo1TTgggiJOiiZlGAEHSuHHKCQEEcVI0MdMIIEgaN045IYAgToomZhoBBEnjxiknBBDESdHETCOAIGncOOWEAII4KZqYaQQQJI0bp5wQQBAnRRMzjQCCpHHjlBMCCOKkaGKmEUCQNG6cckIAQZwUTcw0AgiSxo1TTgggiJOiiZlGAEHSuHHKCQEEcVI0MdMIIEgaN045IYAgToomZhoBBEnjxiknBBDESdHETCOAIGncOOWEAII4KZqYaQQQJI0bp5wQQBAnRRMzjUAugmTvTWqQ8rFRImGUlMPotFXO0lNZOC518rWUw/7Qvn3dWZqCtbshULEg2Zqx10vIXhSRFveUQ1glWXghzN6+yT2LHgKgIkGytWOfkyxb0kNY5BcjhLlh1o638ruQm4oikCxI9k7b2yJyY1GLm38XScxXpFkwSZBszZglEsJzmgccz2wNszsnO87fI6InCtK2VYJM7BEEqhkiC3eF9h2vVPMJ7q4ugWhBspcn1Uvzr4dFpFd1V+sJt4d3w+wds3pCEq8Z4gVZ3dYqJdnlFVhk7iNSLg0Pc7YfiDzHuBEC8YKsaZsiQdYb2d/+Glm2ILTvXGV/UTY8HQEEqfbXRSavhfbOO6r9DPdXhwCCVIfrqbd+Jds6W8IyKVf/KV7ImwCC5E30dPdlpWv5GEotQOf/BoLkz/S/N2byZGjvXFqLp3gjXwIIki/P09+WyebQ3nllLZ7ijXwJIEi+PLu/re3uT6TvsK5/P+JX1QhkZZHSTpHsY2k6ujaEuScrfQpBKiWoPX/pTJELrtFOM5cPgaeldLIjDJ51KPU6BEklF3tuQKtI66LYU8xXTuA7qcumhUE3fJZyFYKkUEs5U6oXmfCwSK9+Kac5UxmBdaF55rUpVyBICrXUMyPniQwan3qac5UQyLJ5YcgNb8ZegSCxxCqZb5osMuKmSm7gbCqBIB+EppkzYo/HC7Jh0Z1yYOvLsQ8x3/X554EiEx8SCXXgKIJA04y6EELUJxriBdly31L5dn1HEfl6xJutt4sMGNkjopx1IU6ULg5Dp38TszeCxNDKY/aiKSKXXJfHTdwRSwBBYokVMN84VGTcvQU8zJNSuCBd34/OyWjiTARa5os0DD7TFL8fSyCUROqHiEg3fzAqRpBMpDET6ZOJ9EKO2E6ZrwKBhlaRhgkijf/6bxNqLkiXFAMr/rhLFQhxJQREpK6/yKD5Ir3/+j8NaypIY1mkf9RPzOgMAsUQaF4s0nu41O7vIN+v75AhvxUTllchEEvg3MtEhtxTQ0F+WdchffnuEdsT8wUSGHyrSP24Gv07yIkPO/hpVYFl83Q8gYbxIgMW1kCQzTc/I7L1wfgNOQGBIgnUi1z4dC0EmfGGyJ5biozK2xBIItAw9YrQtnJLzNn4j5psRpAYwMwaIoAghspgFXsEEMReJ2xkiACCGCqDVewRQBB7nbCRIQIIYqgMVrFHAEHsdcJGhgggiKEyWMUeAQSx1wkbGSKAIIbKYBV7BBDEXidsZIgAghgqg1XsEUAQe52wkSECCGKoDFaxRwBB7HXCRoYI1ESQXbctl8MbHzUUm1UgoCOAIDpOTDklgCBOiye2jgCC6Dgx5ZQAgjgtntg6Agii48SUUwII4rR4YusIIIiOE1NOCSCI0+KJrSOAIDpOTDklgCBOiye2jgCC6Dgx5ZQAgjgtntg6Agii48SUUwII4rR4YusIIIiOE1NOCSCI0+KJrSOAIDpOTDklgCBOiye2jgCC6Dgx5ZQAgjgtntg6Agii48SUUwII4rR4YusIIIiOE1NOCSCI0+KJrSOAIDpOTDklgCBOiye2jgCC6Dgx5ZQAgjgtntg6Agii48SUUwII4rR4YusIIIiOE1NOCSCI0+KJrSOAIDpOTDklgCBOiye2jgCC6Dgx5ZQAgjgtntg6Agii48SUUwII4rR4YusIIIiOE1NOCSCI0+KJrSOAIDpOTDklgCBOiye2jgCC6Dgx5ZQAgjgtntg6Agii48SUUwII4rR4YusIIIiOE1NOCSCI0+KJrSOAIDpOTDklgCBOiye2jgCC6Dgx5ZQAgjgtntg6Agii48SUUwII4rR4YusIIIiOE1NOCSCI0+KJrSOAIDpOTDklgCBOiye2jgCC6Dgx5ZQAgjgtntg6Agii48SUUwII4rR4YusIIIiOE1NOCSCI0+KJrSOAIDpOTDklgCBOiye2jgCC6Dgx5ZQAgjgtntg6Agii48SUUwII4rR4YusIIIiOE1NOCSCI0+KJrSOAIDpOTDklgCBOiye2jgCC6Dgx5ZQAgjgtntg6Agii48SUUwII4rR4YusIIIiOE1NOCSCI0+KJrSOAIDpOTDklgCBOiye2jgCC6Dgx5ZRATQTZs/R++Wn1804RE/tsJnDhsxeHodO/iYkQYoa7ZrMDa1tk7yO7Y88xD4FCCfRuKYdx79fF7hAtyB+S7FxwUI58Oij2MeYhUBiBflM3hNErr459P02QLx9/Qn5c9VjsY8xDoDACw1ZcFZrnbIx9P0mQP7+LLNovRzY1xz7IPARqTqD/tI/CqJempbybLsgPH4yQg69vkKPbmlIe5gwEakLgvKs7w+WvjU19K1mQvx/MPn/gKTn+xR1yfPf5qUtwDgK5E2gcu1f6jFoRhi9/tZK7KxbkH1H2LWuTQ/sWSvnYmEoW4iwEkgmU5KSEvpukcfzKMGzxz8n3nHIwN0HyWIY7IGCNAIJYa4R9TBFAEFN1sIw1AghirRH2MUUAQUzVwTLWCCCItUbYxxQBBDFVB8tYI4Ag1hphH1MEEMRUHSxjjQCCWGuEfUwRQBBTdbCMNQIIYq0R9jFFAEFM1cEy1gggiLVG2McUAQQxVQfLWCOAINYaYR9TBBDEVB0sY40AglhrhH1MEUAQU3WwjDUCCGKtEfYxRQBBTNXBMtYIIIi1RtjHFAEEMVUHy1gjgCDWGmEfUwQQxFQdLGONAIJYa4R9TBFAEFN1sIw1Ar8D78je9k5gcEAAAAAASUVORK5CYII=;" vertex="1" parent="1">
          <mxGeometry x="300" y="410" width="40" height="40" as="geometry" />
        </mxCell>
        <mxCell id="g-MxfnX2MLfXd-Wyj08T-17" value="utils" style="text;strokeColor=none;align=center;fillColor=none;html=1;verticalAlign=middle;whiteSpace=wrap;rounded=0;fontSize=15;fontStyle=1" vertex="1" parent="1">
          <mxGeometry x="330" y="415" width="60" height="30" as="geometry" />
        </mxCell>
        <mxCell id="g-MxfnX2MLfXd-Wyj08T-18" value="" style="shape=image;verticalLabelPosition=bottom;labelBackgroundColor=default;verticalAlign=top;aspect=fixed;imageAspect=0;image=data:image/png,iVBORw0KGgoAAAANSUhEUgAAAMgAAADICAYAAACtWK6eAAAAAXNSR0IArs4c6QAAFtBJREFUeF7tnQmUXFWZx39fVYcQCIsOi4BRk9FhqeosEvVAZoB4ZDEybKGrySAqwkRHDUrS1ahHD+2RLV0dwsRBxWWEOQ6kq4NEUVpGkZARlJFF6W7GDCgwkICCoyjpgEnXN3mVtCamu+vdt796953Tp3NO3/st/+/98ra7CPawClgFxlVArDZWAavA+ApYQOzZYRWYQAELiD09rAIWEHsOWAW8KWCvIN50s70yooAFJCOFtml6U8AC4k032ysjClhAMlJom6Y3BSwg3nSzvTKigAUkI4W2aXpTwALiTTfbKyMKWECiLnRbNc8MptLCVLYyFUb2o8ZUcvlhJLeZkdowe20bZtuWYZ7Yb5i+0kjUIVp/f1bAAhLE2bBk1WT2Onw6uZEZkJ+O1GagTEfkUNSBQPcD53f9Z4qhy5eB4fqP6jAizr83A/8HPIvqs4hsAtlETZ9lcn4TVy181tCHbT6OAhYQk1PjkzcfytaWOai8bQcEMgNhOnCEiZmI2m6qAwQ7fjsgUVtHbvhBui/6Q0QxpN6NBWSiEpZXnwIyE5WZCG8Fjkx9xXcksA70QSTXT3fbXU2SUyhpWED+UtbLbj2BkZHTEU4Hjg5F9WQZ/S9U1qJyGyvO/XmyQos/GguIU4MlX9+fyZOWIrl3gc6NvyxxRaBX8PJ+V/C5Ba/EFUHS/FpAOqoXIXIpaCFpxYkpnvtBrqDS9u2Y/CfKbXYB+fitb2HbyGcRTk1URRITjKyk0rY0MeHEFEg2Aem45SRy+SrKwTHpnhK3cj9bW07jurN/l5KAAw8ze4A4cEj+7sCVbGaDOZnH8rb7mjnF8XLLFiBLqgezN7/OYqF95zwy8jquXfS0bzspM5AtQMp9d4OelLIaJSNc5XHyzGV56cVkBBRNFNkBpKP3GkQui0bWpvWylkrp7KbNbozEsgFI190tbH7eGXLh9aH8BWADyAbgBdCjdn5Vb5Yv6wbnfG4plXNXGnRIddNsAFKungb0e6uUfo5K+yVj9l3W905EVyG80ZvtVPZ6BskfR/fCZ1IZvWHQGQGktwdkmaE2oCPz6Vm0rmG/cvVrwPsatmuaBrqSSnsmvpFkBJDqA8CxRuencBTdJeeWyt1RrlaBNneNm6CVqT4pTTkrgKhZffQyKu3dRn2W3XwQuZaHgdca9UttYy1Tae9JbfguA29+QJZVjyWHcwVxe/yWSunVbhvv1q6zbxmqTX/S1HMW1tNdOtGTTinq1PyAlKuLgRsMavIglZK3Eb3Z+0p/GJXScwbapq5p8wPS0duFyOUGlemjUioZtN+9abm6Bdjbc/80dczpaSxvvzNNIZvGagH5S8VUP0NPe5epkH9qn6Wv9TltZ3m783KiaQ8LyJ6ArKanfZGnii++YRIHvMpZUGGSp/5p66S6mJ72L6ctbJN4LSB7AMLD9JTebCLin9p2VN+OkKE53s3/JssCsicJw+SZxTWlx40hMX/eMXaRqA5+b0cTlczYwVhAxtJF6Ke7tMCofp29Z9UXPsjSYQFpgmp7/V9da5fSc951rhUoV38DePt+4tpJwhpaQBJWEC/heAXE8aVcTE/pqxO6Xbp2Gvmt/Zlc9MEC4uWMTFgfP4DUIdHVIKvoKf1ot8yW3jKNXP5MhM8lLOPowrGARKd1aJ78AvLnwH6N8hOQXyB6AjA7tJjTYtgCkpZKTRBncIA0gRgBp2ABCVjQOMxZQMJT3QISnraRWbaAhCe1BSQ8bSOzbAEJT2oLSHjaRmbZAhKe1BaQ8LSNzLIFJDypLSDhaRuZZQtIeFJbQMLTNjLLziy/NB1pWjfYApKmM6tJYi1XDReYiDFvC0iM4mfVtQUkUZVv/uHuiZLbRTAWEBciRdfEAhKd1u48WUDc6RRRKwtIREK7dmMBcS1VFA0tIFGobOLDAmKiVuhtkwtIV3Uqw7VpaH4aOjId5LDQ1UiCA7M1vOKNeIK3WDqA83p9/FfswvMom8ixka1slNlsjDeZsb0nBxBnr/K9W96L5koIr4P6jz2SrEAjQATTvSBvRKhKwetWFcGLFT8gHdXpoO9F5D3A9OBTtBZDUyB4QEZDfRLlduAL0sp/hxa/C8PxAdKxZiaiF6MOHOzvIlbbJGkKhAfIaKa/RekhR48U+GMc6ccDSGf1ApTK9v8hDo0jaeszIAXCB2Q00AccUKSV3oAid20mekDKfRXQDtcR2obJVSA6QHZoIPUrSTlKQaIFpNx3J+gpUSZofYWoQNSA7IDk61LgghCz2s10dICUq84+EvaWKqrKRuEnDkCcvJTvSysnR5FiNICUq78AZkSRkPURoQJxAbIjxXVSZH7Y2YYPSLn3iyAfCDsRaz8GBeIFxLndWiUFPhpm5uECYr79WZi5WttBKxA3IDvy+bAU+XzQqY3aCw+Qct/poM7HHns0qwLJAMRR931S5KYwZA4HEGdn2Tz9KAeHEbS1mRAFkgOIc7t1phT4VtDKhANIR/UOhHcGHay1lzAFkgSIsl5aCXxb6uABKfcuArk5YaW04YShQJIAcfITLpFCsKvtBw9IR/VehOPDqIe1mTAFkgYIPEULx8tRbApKqWAB6VzzQbT2haCCs3YSrkDyAHEEu1aKLAtKueAA+VB1KvvKjzO501JQ1UibnWQC4qg4W4r8LAg5gwOkXP04cHUQQVkbKVEguYCslCJLg1AxGECW3X4QuS0/BY4IIihrIyUKTAzIKQh3xpTJb5jMbHkTz/j1Hwwg9ou53zqks7+yjJ7StWMFrwOcjfCN2BJTPiWtXOnXf1CA9AOn+Q3G9k+dAhdSKd04DiAXIPxbbBkJ/8P+zJZpbPETg39AyqvfDLkH/QRh+6ZUgVzuDJafO+ZwIh3igyjxvtFU/kla+aIfdQMApPezIJ/yE4Ttm1oF5lApOc+eexw6QAdSn1Yd53G7FDnDTwABANI3aF/t+ilBavv+jkrpVeNFrwN0IVwec3bDTOFw+Wte9BqHP0A6+s5EdK1X57ZfqhX4FpXSmeMCMsSPUd4We4bKeX4We/AHSLn3JqivZ2WPrCkw8SveaQj/mwhJlK9JK+/3GotfQJ4AeYNX57ZfahXYxKT8XK5a+Ow4zx8XIXwlIdk9LUXvq3R6B6Rz9dHblwl9NCEi2DCiVKDBzlI6xGqU9ihDmtCXMktaecRLPD4AqS/+Ft97bi/Z2j5BKPAUk/LHjXv1+BmHkOfnwLgP8EEEYWjjA1LkS4Z96s29A1KuXgfhTpj3kpDtE7ICqovpaf/yuA/nA3wUwTk3knR8SYp4WjjEDyDrgb9Lkgo2lpAVENbQXWqbyIsO8mNIwNur3YN8UIrM9aKOH0BeAvb14tT2SaEC6uzfsW0BPf8w7r28DnEGyjeTmJ0Uvd0teQNk6S1zyOcfSqIQNqaQFNCR+fQsWtfg6uFMtV4UUgT+zNaYKzMxHhLlDZCO3n9ExNNDj78sbe9YFHAHh7PK4Q9iic+dU08P6t4AKfdWQOwK7e4Kk95WzojYkfwprFj41IRXjiH2QutwzEtwsp4e1L0CYr+gJ/hMCCQ054Gcye+n+8w/NLKng1wDXNaoXcx//6EUzV8qeQOko/e7iJwac8LWfSgK6CZqeiUrznO1nKcO8vcQ/IJtIaQ2JEWKpna9AdJZfWj724o5ps5s+wQroDyOaD/oP1M5z1mNv+GhQxwDVFEKDRvH32CjFHmtaRjeACn3bgQ53NSZbZ8YBZ4EeRL0SVSfglo/PYvuN4kuZXA4e4oMS6v5ZwmPgFS3Ai0mgqazraxDas9R4zkk5wzMczYBeg7dFsuGkr41bOFJrln0pF87qYNjNGFhsulmoOaAfOKmv2LblBf8ipzI/sp6RNejLfcwdWQ9XaV0ghCiuDrIPIQbUnJbtbsSymuklV+ZyGMOSDOO4lW5Cc1dz4qFPzERL2ttdYAlwHKEKanMfYSjZBYbTGI3B6TjlpOQ/N0mThLc9lZEr6e7vVnyCUVq3TFCd7mzD0coDqIyOsJxMqs+Vsz1YQ5IuXceyA9de0hkQ7kf5Wp62hI5bigpkunTTOFFLgQWA7OSEpfnOPLMlaPNhpuYA7J0zRzytbSOw/ojqlczVa6yzxfjn2b6GAfzCheivB/hSM8nZNI6tnCE6crv5oB0Vo9E6xNi0nZ8Ex252vR1ZtqS9BqvPs4hvFzf9GgeygKkCZeRXUNeuqiZaGQOyNK108j/MRkT8t1n2kelVHLffIL/XR/mDbSQ7nn4yoHAgeQ4EOEAlHcBbwlCnwTb+JUUeY1pfOaALLv5IHItz5s6irG9Jzh0iNnUOAvh9VAHYvQnxlSsax8K/FSK5qM/zAFZfPs+HLBls49Ao+xqBIcOMBPhQoSTU/meP0pl0+erX4osMA3bHBDHQ7mqpo5iaP9Ttk6az3Vn/66Rb93AEWzlEpQlqX3H3yjJrP9d+FcpcJGpDB4BScFyo6Jn093ecNVHfZT2+itfZbqpeLZ9ihQQrpQCxmtIewSkWgUmnLwfq3Qi19HddmmjGHSwvgvRikbt7N+bQoGPSJHrTTPxBkhH3+WIdpk6i6i9q1srfZSPUWNlRDFZN3ErkGehHG2+oY83QMp9baDOVSR5h8iH6W6bcLKPvXIkr2yhRyTMkQJjbtUwkW9vgCyrHkOOodCTMnewgW3MYWVp3F2FdBDn1mvMbcPM3dkeqVBA+L0UOMBLrN4AcTwl8k2WXEalrXs8IfQRjkO4y76p8nKqpLrPt6VYnxpsfHgHJGnz0p2FzSYxh6tL437E1EHuAt5urJLtkG4FlM7tswk97XblA5C+jyGaoIdcuYFK2wfHvXoM1kek3pDuStvoPSlQ40SZibNUrvHhHZCkbd6pnE9PyVnZb8xDB3kAONZYIdsh7Qq8wu95lRzvbbdb74DUn0P6nIn/zliluI8RNnMgny856wXvcai9esRdn/j8C9+TAqd4DcAnINWvJWSW2feplE6e4OqR7A+bXqtn+zVWwOMX9FHDPgHpuxh03L0iGkcfVAv5NJW2K8YFZICnt28JZrwmUlDRWTsxKiCcJQXvK877A+TSf59By16Pgk6OUQJQ/Sg97avGvL0a4o0oj8Uan3UenwIeZhHuGqw/QOrPIdXVEPt+dBdSKd04JiCPsIAc34mvQtZzjAr0SRFfE+WCAMTZrNGBJL5DOYee0m1jAjLABYjdSzG+4sToWShJgT4/EfgHZMmqyUw57FFUZ/gJxFdfkXfQ3eZ8BNzjsENLfCmb3s7CkBTMF6v+y4T9A+JY7KyuQOtDx+M5JtjgRQfoQrg8nsCs19gUELqkwGf8+g8GkMuqf0uN//QbjOf+FhDP0jVtR6EgBR71m18wgDhRlGOcRGUB8XseNFv/z0uRDweRVHCAdFSdkbL3BRGUsQ0LiLFkTdxhM8Jbg7h6OBoFB0j9KtJ7LUjDqa6BF8cCErikqTUoVKRAZ1DxBwtI562vRUd+BBF/tbaABHU+pNuO8jzbeKvMwfceKKNCBAtI/Sqy5lKoRTtjzwKS7hM7qOiVz0grga6VEDwgOx7Yvwe8I6i8G9qxgDSUqOkbCLdJgXOCzjMcQDrWzET0HlBnDdjwDwtI+Bon28MvUE6VVlxtPmqSSjiAOBF0Vi9AIxriYQExqXnztVXOkVbGHGrkN9nwAKnfavVVQDv8BtmwvwWkoURN2yCE545dtQoXkB2Q3AnqeUaXq8JaQFzJ1ISNviRFPhBmXuEDsgOSm0DfE1oiFpDQpE2w4dulyBlhxxcNIE4WYS5XagEJ+zxJmv11UmR+FEFFB0gdkt4uRIIfWWsBieJcSYaPgL+UN0oqWkD+DImzDH2+UXCu/24BcS1VyhueK0VujTKH6AGpP5PcOg8d+TTCqYEkawEJRMbEGlEeooWPyNE4w5giPeIBZDTFcm8HKg4o+/vK2gLiS74Ed34M5XqK/IsII3HEGS8g9atJdTbou0Gcue3eluaxgMRx7oTp0xls+FVqXC8z+W2YjhrZjh+QXSPsXH0+mnNeB5t9N7GANKpzOv6u3IHQy/PcLPPZloSgkwXIqCJd1b14eeRwtuUPQ/RwRA6jpgeNLVhOYds99CxaN9bfUzcnXf3Po07CidUwhhwvobyI8GL9d54H5Gh+07BfxA2SCUiAIqQNECkGPIktQC2zaMoCkrCqW0CSVRALSLLqgQUkWQWxgCSrHhaQpNUjYfEEHo59Bglc0kwZtFeQhJXb3mIlqyAWkGTVw95iJa0eCYsn8HDSdosVuABhGgxo/dswQ/Rr215B/CqY5f4WkPRX315BQqxhyPPBQ4zctWl7BXEtlW24hwIWkPSfFPYKEmIN7S1WiOJGZNoCEqLQ9goSorgRmbaA1IUeRriXGveR43iUecA+vktgAfEtYewGMg2IshG4hFf4rsxleLQY+gD7MJnTgFUIR3gukgXEs3SJ6ZhhQFwtjaOD3A2c5KlgFhBPsiWqUyYBEb4qBS52Wwgd4isoF7lt/6d2FhBjyRLXIXOAeNz+WIcYRCkYFdACYiRXIhtnEJAzpcC3TIuhQ5yB8k2jfhYQI7kS2VgH+RiwMpHBBR/UFoRDpMBLpqZ1iKkovwamuO4rfEIKXOO6fQobNv+X9Ec4i1w4e0ckrt7Ceilwote4dIh7UE5w3V/5kLTyBdftU9iw+QEZYjbKwymsjXnIPm95jG9HhfOlwM3mgaanR/MD8jAHMinexcciOx2E70nBcE2xXYLTIf4D5WTX8SqnSyvfcd0+hQ2bHhCnJjrIQ8CcFNbHNORhXubgXT8KujVQ/3i4N88bfWEX3iQFHnfrI43tsgHIEEtQVqWxQMYxKwullW+Y9tMBzkGMVk7vlyILTP2krX1WAHkjymNpK46neJWN0mq+xrEO8IzRsJMc58kx9HqKMUWdMgFI/TZrgNsQzkpRbfyE6mqYyagDD8NNfslkjpE38YqfINPQNzuA/Iwiee4CDklDYXzH6HK4iadhJkJZCvT4jjEFBjIDyM6H9cXADSmoSzAhCkPAJ4Ef7PrxsP5REN4OXGU8vASMrk7BJBKflUwBshOSG4H3xid5LJ6dL+w/cUCpg6G8xeiL+e4hnyZF7owlixicZg6QOiReR6/GUKBEufT5ITJRubgMJpOA7LySrACWutTJNssgHE7RMwvIzjdbXQjBb0vdbDhlFI7MA7LzdquNGtci5t8Omo2DMfJ5iR1vrL6YgVzHTDHTV5BRRXSIY1CuhYC2pW6Os+k+lLK0cl9zpOMtCwvILrrpIM5rYOfnWG9yNkUv5+PfSoQrvcwraQoFdknCAjJGRTMLivJ1aqyUWfXBnfbI+kN6ozNAB3g3wvlQXyKnWY8XgNuosVZmckezJuk1L3sFcaGcDjIfrcPyLuBQF12S30S4A2Utk7hNjsSBxB5jKGABMTgt6nMm9mE+tfowjfkpnGPSj9AP9Df7PA6Dsk7Y1ALiQ0kdooByPHA8Ul/S8298mAujqzPV+N76j3KvtPJ0GE6a2aYFJMDq6gaO4hVOJFdf+MAB5w0Bmm9k6hmor201uP119Y/Yi/X21qmRZI3/bgFprJHnFvoIM8hzAjWKwGuQnT/KYdvXxX21B8ObUZ5A+CVS/72hDsQIgzIzI/PuPYjmp4sFxI96PvpqlTxz2JcRpvIyU5nEvsBUauT3MJtjC9t4QmbV162yR4QKWEAiFNu6Sp8CFpD01cxGHKECFpAIxbau0qeABSR9NbMRR6iABSRCsa2r9ClgAUlfzWzEESpgAYlQbOsqfQpYQNJXMxtxhApYQCIU27pKnwIWkPTVzEYcoQIWkAjFtq7Sp4AFJH01sxFHqMD/A9IBzCMOaxy5AAAAAElFTkSuQmCC;" vertex="1" parent="1">
          <mxGeometry x="305" y="460" width="30" height="30" as="geometry" />
        </mxCell>
      </root>
    </mxGraphModel>
  </diagram>
</mxfile>
